<svg width="921" height="283" viewBox="0 0 921 283" fill="none" xmlns="http://www.w3.org/2000/svg">
<rect width="920.575" height="282.465" fill="url(#paint0_linear_608_10859)"/>
<path d="M75.7846 41.0342C87.437 41.0342 96.7452 43.5509 103.709 48.5842C110.742 53.6175 114.258 61.4087 114.258 71.9579V82.5072C114.258 93.2632 110.776 101.123 103.812 106.088C96.9175 110.983 87.5749 113.431 75.7846 113.431H42.7924C42.034 113.431 41.379 113.155 40.8274 112.603C40.2758 112.052 40 111.397 40 110.638V43.8267C40 43.0682 40.2758 42.4132 40.8274 41.8616C41.379 41.31 42.034 41.0342 42.7924 41.0342H75.7846ZM76.3017 93.2632C79.5423 93.2632 82.0935 92.5048 83.9551 90.9879C85.8857 89.4021 86.851 87.1957 86.851 84.3688V70.0963C86.851 67.2694 85.8857 65.0975 83.9551 63.5806C82.0935 61.9948 79.5423 61.2019 76.3017 61.2019H66.8902V93.2632H76.3017Z" fill="white"/>
<path d="M197.474 93.2632C198.232 93.2632 198.887 93.539 199.439 94.0906C199.991 94.6422 200.266 95.2972 200.266 96.0557V110.638C200.266 111.397 199.991 112.052 199.439 112.603C198.887 113.155 198.232 113.431 197.474 113.431H132.11C131.352 113.431 130.697 113.155 130.145 112.603C129.594 112.052 129.318 111.397 129.318 110.638V43.8267C129.318 43.0682 129.594 42.4132 130.145 41.8616C130.697 41.31 131.352 41.0342 132.11 41.0342H196.44C197.198 41.0342 197.853 41.31 198.405 41.8616C198.956 42.4132 199.232 43.0682 199.232 43.8267V58.4094C199.232 59.1679 198.956 59.8229 198.405 60.3745C197.853 60.9261 197.198 61.2019 196.44 61.2019H156.208V67.7176H190.751C191.51 67.7176 192.165 67.9934 192.716 68.545C193.268 69.0965 193.544 69.7516 193.544 70.51V83.9551C193.544 84.7135 193.268 85.3685 192.716 85.9201C192.165 86.4717 191.51 86.7475 190.751 86.7475H156.208V93.2632H197.474Z" fill="white"/>
<path d="M257.523 67.3039C265.107 68.1313 271.175 69.4758 275.725 71.3374C280.345 73.199 283.689 75.6467 285.757 78.6805C287.826 81.7142 288.86 85.5064 288.86 90.0571C288.86 95.0214 287.24 99.3652 283.999 103.088C280.828 106.743 276.415 109.57 270.761 111.569C265.107 113.5 258.66 114.465 251.421 114.465C243.354 114.465 236.528 113.465 230.943 111.466C225.358 109.466 221.187 106.812 218.429 103.502C215.671 100.124 214.292 96.4349 214.292 92.4358C214.292 91.7463 214.498 91.1948 214.912 90.7811C215.395 90.3674 215.981 90.1605 216.67 90.1605H237.872C239.32 90.1605 240.492 90.6087 241.389 91.505C242.561 92.6082 243.871 93.3667 245.319 93.7803C246.767 94.1251 248.801 94.2975 251.421 94.2975C257.971 94.2975 261.246 93.2977 261.246 91.2982C261.246 90.4708 260.798 89.7813 259.901 89.2297C259.074 88.6092 257.557 88.092 255.351 87.6783C253.213 87.1957 250.042 86.7131 245.836 86.2304C236.39 85.1272 229.15 82.783 224.117 79.1976C219.084 75.5433 216.567 70.4066 216.567 63.7875C216.567 59.0989 217.98 54.962 220.807 51.3766C223.634 47.7913 227.633 44.9988 232.804 42.9993C238.045 40.9998 244.112 40 251.007 40C258.178 40 264.452 41.1377 269.83 43.413C275.208 45.6194 279.311 48.3773 282.138 51.6869C284.965 54.9964 286.378 58.2371 286.378 61.4087C286.378 62.0982 286.137 62.6498 285.654 63.0635C285.24 63.4772 284.654 63.684 283.896 63.684H261.66C260.488 63.684 259.419 63.2703 258.454 62.443C257.695 61.7535 256.799 61.2019 255.765 60.7882C254.73 60.3745 253.144 60.1676 251.007 60.1676C246.387 60.1676 244.078 61.1329 244.078 63.0635C244.078 64.0977 244.974 64.9251 246.767 65.5457C248.559 66.0973 252.145 66.6833 257.523 67.3039Z" fill="white"/>
<path d="M353.77 92.229H372.49C373.248 92.229 373.903 92.5048 374.455 93.0564C375.006 93.608 375.282 94.263 375.282 95.0214V110.638C375.282 111.397 375.006 112.052 374.455 112.603C373.903 113.155 373.248 113.431 372.49 113.431H306.919C306.16 113.431 305.505 113.155 304.954 112.603C304.402 112.052 304.126 111.397 304.126 110.638V95.0214C304.126 94.263 304.402 93.608 304.954 93.0564C305.505 92.5048 306.16 92.229 306.919 92.229H325.845V62.2361H306.919C306.16 62.2361 305.505 61.9603 304.954 61.4087C304.402 60.8571 304.126 60.2021 304.126 59.4437V43.8267C304.126 43.0682 304.402 42.4132 304.954 41.8616C305.505 41.31 306.16 41.0342 306.919 41.0342H372.49C373.248 41.0342 373.903 41.31 374.455 41.8616C375.006 42.4132 375.282 43.0682 375.282 43.8267V59.4437C375.282 60.2021 375.006 60.8571 374.455 61.4087C373.903 61.9603 373.248 62.2361 372.49 62.2361H353.77V92.229Z" fill="white"/>
<path d="M464.807 69.786C465.565 69.786 466.22 70.0618 466.772 70.6134C467.323 71.165 467.599 71.82 467.599 72.5785V83.5414C467.599 94.0217 464.014 101.813 456.843 106.915C449.741 111.948 440.33 114.465 428.608 114.465C416.887 114.465 407.441 111.948 400.27 106.915C393.168 101.813 389.617 93.9527 389.617 83.3345V71.1305C389.617 64.0977 391.341 58.2715 394.789 53.6519C398.236 48.9634 402.89 45.5159 408.751 43.3096C414.612 41.1032 421.231 40 428.608 40C437.434 40 444.708 41.4479 450.431 44.3438C456.153 47.2397 460.29 50.5147 462.841 54.1691C465.462 57.8234 466.772 60.7882 466.772 63.0635C466.772 63.684 466.53 64.2356 466.048 64.7183C465.634 65.132 465.117 65.3388 464.496 65.3388H441.122C439.744 65.3388 438.744 64.9596 438.123 64.2012C435.986 61.5121 432.814 60.1676 428.608 60.1676C425.437 60.1676 422.782 60.8916 420.645 62.3395C418.576 63.7875 417.542 65.6491 417.542 67.9244V85.5064C417.542 88.2644 418.576 90.4363 420.645 92.0221C422.713 93.539 425.368 94.2975 428.608 94.2975C432.883 94.2975 436.02 93.5735 438.02 92.1256C440.088 90.6087 441.157 88.8505 441.226 86.851H434.814C434.055 86.851 433.4 86.5752 432.849 86.0236C432.297 85.472 432.021 84.817 432.021 84.0585V72.5785C432.021 71.82 432.297 71.165 432.849 70.6134C433.4 70.0618 434.055 69.786 434.814 69.786H464.807Z" fill="white"/>
<path d="M547.815 41.0342C548.574 41.0342 549.229 41.31 549.78 41.8616C550.332 42.4132 550.608 43.0682 550.608 43.8267V110.638C550.608 111.397 550.332 112.052 549.78 112.603C549.229 113.155 548.574 113.431 547.815 113.431H531.164C529.509 113.431 528.13 112.707 527.027 111.259L504.481 82.5072V110.638C504.481 111.397 504.205 112.052 503.653 112.603C503.102 113.155 502.447 113.431 501.688 113.431H482.452C481.693 113.431 481.038 113.155 480.487 112.603C479.935 112.052 479.659 111.397 479.659 110.638V43.8267C479.659 43.0682 479.935 42.4132 480.487 41.8616C481.038 41.31 481.693 41.0342 482.452 41.0342H499.206C500.861 41.0342 502.206 41.7237 503.24 43.1027L525.786 74.2333V43.8267C525.786 43.0682 526.062 42.4132 526.614 41.8616C527.165 41.31 527.82 41.0342 528.579 41.0342H547.815Z" fill="white"/>
<path d="M109.604 221.263C110.363 221.263 111.018 221.539 111.569 222.091C112.121 222.642 112.397 223.297 112.397 224.056V238.638C112.397 239.397 112.121 240.052 111.569 240.603C111.018 241.155 110.363 241.431 109.604 241.431H44.2404C43.4819 241.431 42.8269 241.155 42.2753 240.603C41.7237 240.052 41.4479 239.397 41.4479 238.638V171.827C41.4479 171.068 41.7237 170.413 42.2753 169.862C42.8269 169.31 43.4819 169.034 44.2404 169.034H108.57C109.328 169.034 109.983 169.31 110.535 169.862C111.087 170.413 111.362 171.068 111.362 171.827V186.409C111.362 187.168 111.087 187.823 110.535 188.374C109.983 188.926 109.328 189.202 108.57 189.202H68.3381V195.718H102.882C103.64 195.718 104.295 195.993 104.847 196.545C105.398 197.097 105.674 197.752 105.674 198.51V211.955C105.674 212.714 105.398 213.369 104.847 213.92C104.295 214.472 103.64 214.748 102.882 214.748H68.3381V221.263H109.604Z" fill="white"/>
<path d="M196.336 169.034C197.095 169.034 197.75 169.31 198.301 169.862C198.853 170.413 199.129 171.068 199.129 171.827V238.638C199.129 239.397 198.853 240.052 198.301 240.603C197.75 241.155 197.095 241.431 196.336 241.431H179.685C178.03 241.431 176.651 240.707 175.548 239.259L153.002 210.507V238.638C153.002 239.397 152.726 240.052 152.174 240.603C151.623 241.155 150.968 241.431 150.209 241.431H130.972C130.214 241.431 129.559 241.155 129.007 240.603C128.456 240.052 128.18 239.397 128.18 238.638V171.827C128.18 171.068 128.456 170.413 129.007 169.862C129.559 169.31 130.214 169.034 130.972 169.034H147.727C149.382 169.034 150.726 169.724 151.761 171.103L174.307 202.233V171.827C174.307 171.068 174.583 170.413 175.134 169.862C175.686 169.31 176.341 169.034 177.099 169.034H196.336Z" fill="white"/>
<path d="M289.067 197.786C289.825 197.786 290.48 198.062 291.032 198.613C291.584 199.165 291.859 199.82 291.859 200.578V211.541C291.859 222.022 288.274 229.813 281.103 234.915C274.002 239.948 264.59 242.465 252.869 242.465C241.147 242.465 231.701 239.948 224.531 234.915C217.429 229.813 213.878 221.953 213.878 211.335V199.131C213.878 192.098 215.602 186.272 219.049 181.652C222.497 176.963 227.151 173.516 233.011 171.31C238.872 169.103 245.491 168 252.869 168C261.694 168 268.968 169.448 274.691 172.344C280.414 175.24 284.551 178.515 287.102 182.169C289.722 185.823 291.032 188.788 291.032 191.063C291.032 191.684 290.791 192.236 290.308 192.718C289.894 193.132 289.377 193.339 288.757 193.339H265.383C264.004 193.339 263.004 192.96 262.384 192.201C260.246 189.512 257.075 188.168 252.869 188.168C249.697 188.168 247.042 188.892 244.905 190.34C242.837 191.787 241.802 193.649 241.802 195.924V213.506C241.802 216.264 242.837 218.436 244.905 220.022C246.974 221.539 249.628 222.297 252.869 222.297C257.144 222.297 260.281 221.573 262.28 220.126C264.349 218.609 265.417 216.85 265.486 214.851H259.074C258.316 214.851 257.661 214.575 257.109 214.024C256.557 213.472 256.282 212.817 256.282 212.059V200.578C256.282 199.82 256.557 199.165 257.109 198.613C257.661 198.062 258.316 197.786 259.074 197.786H289.067Z" fill="white"/>
<path d="M353.77 220.229H372.49C373.248 220.229 373.903 220.505 374.455 221.056C375.006 221.608 375.282 222.263 375.282 223.021V238.638C375.282 239.397 375.006 240.052 374.455 240.603C373.903 241.155 373.248 241.431 372.49 241.431H306.919C306.16 241.431 305.505 241.155 304.954 240.603C304.402 240.052 304.126 239.397 304.126 238.638V223.021C304.126 222.263 304.402 221.608 304.954 221.056C305.505 220.505 306.16 220.229 306.919 220.229H325.845V190.236H306.919C306.16 190.236 305.505 189.96 304.954 189.409C304.402 188.857 304.126 188.202 304.126 187.444V171.827C304.126 171.068 304.402 170.413 304.954 169.862C305.505 169.31 306.16 169.034 306.919 169.034H372.49C373.248 169.034 373.903 169.31 374.455 169.862C375.006 170.413 375.282 171.068 375.282 171.827V187.444C375.282 188.202 375.006 188.857 374.455 189.409C373.903 189.96 373.248 190.236 372.49 190.236H353.77V220.229Z" fill="white"/>
<path d="M459.946 169.034C460.704 169.034 461.359 169.31 461.911 169.862C462.462 170.413 462.738 171.068 462.738 171.827V238.638C462.738 239.397 462.462 240.052 461.911 240.603C461.359 241.155 460.704 241.431 459.946 241.431H443.294C441.64 241.431 440.261 240.707 439.157 239.259L416.611 210.507V238.638C416.611 239.397 416.335 240.052 415.784 240.603C415.232 241.155 414.577 241.431 413.819 241.431H394.582C393.823 241.431 393.168 241.155 392.617 240.603C392.065 240.052 391.789 239.397 391.789 238.638V171.827C391.789 171.068 392.065 170.413 392.617 169.862C393.168 169.31 393.823 169.034 394.582 169.034H411.336C412.991 169.034 414.336 169.724 415.37 171.103L437.916 202.233V171.827C437.916 171.068 438.192 170.413 438.744 169.862C439.295 169.31 439.95 169.034 440.709 169.034H459.946Z" fill="white"/>
<path d="M548.953 221.263C549.712 221.263 550.367 221.539 550.918 222.091C551.47 222.642 551.745 223.297 551.745 224.056V238.638C551.745 239.397 551.47 240.052 550.918 240.603C550.367 241.155 549.712 241.431 548.953 241.431H483.589C482.831 241.431 482.176 241.155 481.624 240.603C481.073 240.052 480.797 239.397 480.797 238.638V171.827C480.797 171.068 481.073 170.413 481.624 169.862C482.176 169.31 482.831 169.034 483.589 169.034H547.919C548.677 169.034 549.332 169.31 549.884 169.862C550.435 170.413 550.711 171.068 550.711 171.827V186.409C550.711 187.168 550.435 187.823 549.884 188.374C549.332 188.926 548.677 189.202 547.919 189.202H507.687V195.718H542.23C542.989 195.718 543.644 195.993 544.196 196.545C544.747 197.097 545.023 197.752 545.023 198.51V211.955C545.023 212.714 544.747 213.369 544.196 213.92C543.644 214.472 542.989 214.748 542.23 214.748H507.687V221.263H548.953Z" fill="white"/>
<path d="M636.823 221.263C637.581 221.263 638.236 221.539 638.788 222.091C639.339 222.642 639.615 223.297 639.615 224.056V238.638C639.615 239.397 639.339 240.052 638.788 240.603C638.236 241.155 637.581 241.431 636.823 241.431H571.459C570.701 241.431 570.046 241.155 569.494 240.603C568.942 240.052 568.667 239.397 568.667 238.638V171.827C568.667 171.068 568.942 170.413 569.494 169.862C570.046 169.31 570.701 169.034 571.459 169.034H635.789C636.547 169.034 637.202 169.31 637.754 169.862C638.305 170.413 638.581 171.068 638.581 171.827V186.409C638.581 187.168 638.305 187.823 637.754 188.374C637.202 188.926 636.547 189.202 635.789 189.202H595.557V195.718H630.1C630.859 195.718 631.514 195.993 632.065 196.545C632.617 197.097 632.893 197.752 632.893 198.51V211.955C632.893 212.714 632.617 213.369 632.065 213.92C631.514 214.472 630.859 214.748 630.1 214.748H595.557V221.263H636.823Z" fill="white"/>
<path d="M732.243 238.225C732.38 238.501 732.449 238.811 732.449 239.156C732.449 239.776 732.208 240.328 731.725 240.81C731.312 241.224 730.795 241.431 730.174 241.431H706.697C705.732 241.431 704.835 241.19 704.008 240.707C703.249 240.224 702.698 239.604 702.353 238.845L693.252 218.367H684.564V238.638C684.564 239.397 684.288 240.052 683.737 240.603C683.185 241.155 682.53 241.431 681.772 241.431H659.432C658.674 241.431 658.019 241.155 657.467 240.603C656.916 240.052 656.64 239.397 656.64 238.638V171.827C656.64 171.068 656.916 170.413 657.467 169.862C658.019 169.31 658.674 169.034 659.432 169.034H699.664C705.869 169.034 711.282 170.034 715.902 172.034C720.59 174.033 724.175 176.929 726.658 180.721C729.14 184.513 730.381 188.961 730.381 194.063C730.381 203.44 726.761 210.231 719.521 214.437L732.243 238.225ZM697.492 199.234C699.009 199.234 700.181 198.751 701.009 197.786C701.836 196.752 702.25 195.476 702.25 193.959C702.25 192.442 701.836 191.132 701.009 190.029C700.25 188.857 699.078 188.271 697.492 188.271H684.564V199.234H697.492Z" fill="white"/>
<path d="M784.741 195.304C792.326 196.131 798.393 197.476 802.944 199.337C807.564 201.199 810.908 203.647 812.976 206.68C815.045 209.714 816.079 213.506 816.079 218.057C816.079 223.021 814.458 227.365 811.218 231.088C808.046 234.743 803.633 237.57 797.98 239.569C792.326 241.5 785.879 242.465 778.639 242.465C770.572 242.465 763.746 241.465 758.161 239.466C752.577 237.466 748.405 234.812 745.647 231.502C742.889 228.124 741.51 224.435 741.51 220.436C741.51 219.746 741.717 219.195 742.131 218.781C742.613 218.367 743.199 218.161 743.889 218.161H765.091C766.539 218.161 767.711 218.609 768.607 219.505C769.779 220.608 771.089 221.367 772.537 221.78C773.985 222.125 776.019 222.297 778.639 222.297C785.19 222.297 788.465 221.298 788.465 219.298C788.465 218.471 788.016 217.781 787.12 217.23C786.293 216.609 784.776 216.092 782.569 215.678C780.432 215.196 777.26 214.713 773.055 214.23C763.608 213.127 756.369 210.783 751.336 207.198C746.302 203.543 743.786 198.407 743.786 191.787C743.786 187.099 745.199 182.962 748.026 179.377C750.853 175.791 754.852 172.999 760.023 170.999C765.263 169 771.331 168 778.226 168C785.396 168 791.671 169.138 797.049 171.413C802.427 173.619 806.529 176.377 809.356 179.687C812.183 182.996 813.597 186.237 813.597 189.409C813.597 190.098 813.355 190.65 812.873 191.063C812.459 191.477 811.873 191.684 811.114 191.684H788.878C787.706 191.684 786.637 191.27 785.672 190.443C784.914 189.753 784.017 189.202 782.983 188.788C781.949 188.374 780.363 188.168 778.226 188.168C773.606 188.168 771.296 189.133 771.296 191.063C771.296 192.098 772.193 192.925 773.985 193.546C775.778 194.097 779.363 194.683 784.741 195.304Z" fill="white"/>
<path d="M877.782 216.816C878.541 216.816 879.196 217.092 879.747 217.643C880.299 218.195 880.575 218.85 880.575 219.608V238.638C880.575 239.397 880.299 240.052 879.747 240.603C879.196 241.155 878.541 241.431 877.782 241.431H856.063C855.305 241.431 854.65 241.155 854.098 240.603C853.547 240.052 853.271 239.397 853.271 238.638V219.608C853.271 218.85 853.547 218.195 854.098 217.643C854.65 217.092 855.305 216.816 856.063 216.816H877.782Z" fill="white"/>
<defs>
<linearGradient id="paint0_linear_608_10859" x1="-0.881278" y1="1.01707e-06" x2="98.539" y2="460.154" gradientUnits="userSpaceOnUse">
<stop offset="0.109375" stop-color="#F14D70"/>
<stop offset="0.317708" stop-color="#FF008A"/>
<stop offset="0.520833" stop-color="#FF446C"/>
<stop offset="0.869792" stop-color="#FFB016"/>
</linearGradient>
</defs>
</svg>
